<svg xmlns="http://www.w3.org/2000/svg" xmlns:xlink="http://www.w3.org/1999/xlink" width="1080" zoomAndPan="magnify" viewBox="0 0 810 809.999993" height="1080" preserveAspectRatio="xMidYMid meet" version="1.2"><defs><clipPath id="f149eeea9c"><path d="M 45.207031 134.40625 L 764.457031 134.40625 L 764.457031 675.90625 L 45.207031 675.90625 Z M 45.207031 134.40625 "/></clipPath></defs><g id="0a69b3f4c5"><g clip-rule="nonzero" clip-path="url(#f149eeea9c)"><path style=" stroke:none;fill-rule:evenodd;fill:#000000;fill-opacity:1;" d="M 84.945312 625.476562 L 724.710938 625.476562 C 728.089844 625.476562 730.855469 628.242188 730.855469 631.625 L 730.855469 669.199219 C 730.855469 672.578125 728.089844 675.347656 724.710938 675.347656 L 84.945312 675.347656 C 81.570312 675.347656 78.804688 672.578125 78.804688 669.199219 L 78.804688 631.625 C 78.804688 628.242188 81.570312 625.476562 84.945312 625.476562 Z M 443.730469 159.625 L 443.730469 134.808594 L 417.113281 134.808594 L 417.113281 159.625 L 392.546875 159.625 L 392.546875 134.808594 L 365.929688 134.808594 L 365.929688 159.625 L 352.886719 159.625 L 352.886719 251.46875 C 362.230469 255.839844 372.582031 258.886719 383.332031 260.617188 L 383.332031 600.882812 L 426.328125 600.882812 L 426.328125 260.617188 C 437.078125 258.886719 447.429688 255.839844 456.773438 251.46875 L 456.773438 159.625 Z M 404.832031 228.835938 C 394.976562 228.835938 386.988281 220.835938 386.988281 210.972656 C 386.988281 201.109375 394.976562 193.113281 404.832031 193.113281 C 414.683594 193.113281 422.671875 201.109375 422.671875 210.972656 C 422.671875 220.835938 414.683594 228.835938 404.832031 228.835938 Z M 764.464844 475.878906 L 757.574219 450.140625 L 733.628906 456.566406 L 727.269531 432.808594 L 751.214844 426.386719 L 744.328125 400.652344 L 720.382812 407.074219 L 717.007812 394.460938 L 628.386719 418.234375 C 626.433594 429.265625 626.289062 441.042969 627.75 452.816406 L 603.449219 460.789062 C 575.394531 469.992188 556.90625 495.410156 556.90625 524.984375 L 556.90625 600.882812 L 599.902344 600.882812 L 599.902344 524.984375 C 599.902344 514.058594 606.324219 505.050781 616.71875 501.644531 L 639.710938 494.097656 C 643.96875 503.097656 649.195312 511.445312 655.273438 518.683594 L 743.894531 494.914062 L 740.519531 482.300781 Z M 685.519531 475.230469 C 676.003906 477.785156 666.21875 472.128906 663.667969 462.601562 C 661.121094 453.074219 666.765625 443.277344 676.285156 440.726562 C 685.804688 438.171875 695.589844 443.828125 698.136719 453.355469 C 700.6875 462.882812 695.039062 472.675781 685.519531 475.230469 Z M 293 299.101562 L 274.050781 292.882812 C 275.839844 280.324219 275.820312 267.695312 273.738281 255.921875 L 185.113281 232.152344 L 181.738281 244.761719 L 157.792969 238.339844 L 150.90625 264.078125 L 174.851562 270.5 L 168.492188 294.257812 L 144.546875 287.832031 L 137.65625 313.570312 L 161.601562 319.992188 L 158.226562 332.601562 L 246.847656 356.375 C 252.441406 349.710938 257.3125 342.113281 261.371094 333.933594 L 279.734375 339.957031 C 290.128906 343.367188 296.546875 352.371094 296.546875 363.296875 L 296.546875 600.882812 L 339.542969 600.882812 L 339.542969 363.296875 C 339.539062 333.726562 321.054688 308.308594 293 299.101562 Z M 238.453125 300.289062 C 235.902344 309.816406 226.117188 315.472656 216.597656 312.917969 C 207.078125 310.363281 201.429688 300.570312 203.980469 291.042969 C 206.53125 281.515625 216.316406 275.859375 225.832031 278.414062 C 235.351562 280.964844 241 290.761719 238.453125 300.289062 Z M 206.210938 460.789062 L 181.910156 452.816406 C 183.371094 441.042969 183.226562 429.265625 181.277344 418.234375 L 92.652344 394.460938 L 89.277344 407.074219 L 65.332031 400.652344 L 58.445312 426.386719 L 82.390625 432.808594 L 76.03125 456.566406 L 52.085938 450.140625 L 45.199219 475.878906 L 69.144531 482.300781 L 65.765625 494.914062 L 154.390625 518.683594 C 160.46875 511.445312 165.695312 503.097656 169.953125 494.097656 L 192.945312 501.644531 C 203.335938 505.050781 209.757812 514.058594 209.757812 524.984375 L 209.757812 600.882812 L 252.753906 600.882812 L 252.753906 524.984375 C 252.753906 495.410156 234.265625 469.992188 206.210938 460.789062 Z M 145.996094 462.601562 C 143.445312 472.128906 133.660156 477.785156 124.140625 475.230469 C 114.625 472.675781 108.972656 462.882812 111.523438 453.355469 C 114.074219 443.828125 123.859375 438.171875 133.375 440.722656 C 142.894531 443.277344 148.542969 453.070312 145.996094 462.601562 Z M 672.003906 313.566406 L 665.117188 287.832031 L 641.171875 294.253906 L 634.8125 270.496094 L 658.757812 264.074219 L 651.871094 238.339844 L 627.925781 244.761719 L 624.550781 232.148438 L 535.925781 255.917969 C 533.84375 267.695312 533.824219 280.320312 535.613281 292.882812 L 516.664062 299.101562 C 488.609375 308.308594 470.121094 333.722656 470.121094 363.296875 L 470.121094 600.882812 L 513.117188 600.882812 L 513.117188 363.296875 C 513.117188 352.371094 519.539062 343.367188 529.933594 339.957031 L 548.292969 333.933594 C 552.351562 342.113281 557.222656 349.710938 562.816406 356.375 L 651.4375 332.601562 L 648.0625 319.992188 Z M 593.0625 312.917969 C 583.542969 315.472656 573.757812 309.816406 571.207031 300.289062 C 568.65625 290.761719 574.308594 280.964844 583.828125 278.414062 C 593.34375 275.859375 603.128906 281.515625 605.679688 291.042969 C 608.230469 300.570312 602.582031 310.363281 593.0625 312.917969 Z M 593.0625 312.917969 "/></g></g></svg>