<svg xmlns="http://www.w3.org/2000/svg" xmlns:xlink="http://www.w3.org/1999/xlink" width="1080" zoomAndPan="magnify" viewBox="0 0 810 809.999993" height="1080" preserveAspectRatio="xMidYMid meet" version="1.2"><defs><clipPath id="618002b551"><path d="M 67.214844 15.058594 L 742 15.058594 L 742 795 L 67.214844 795 Z M 67.214844 15.058594 "/></clipPath></defs><g id="cdc8ba8209"><g clip-rule="nonzero" clip-path="url(#618002b551)"><path style=" stroke:none;fill-rule:nonzero;fill:#ff3131;fill-opacity:1;" d="M 687.785156 99.492188 L 575.378906 99.492188 L 575.378906 83.445312 C 575.378906 45.804688 544.757812 15.179688 507.113281 15.179688 L 302.007812 15.179688 C 264.367188 15.179688 233.746094 45.804688 233.746094 83.445312 L 233.746094 99.492188 L 121.339844 99.492188 C 91.894531 99.492188 67.925781 123.453125 67.925781 152.898438 L 67.925781 178.21875 C 67.925781 205.78125 88.921875 228.527344 115.75 231.335938 L 170.746094 713.953125 C 175.992188 760.042969 214.941406 794.800781 261.335938 794.800781 L 547.78125 794.800781 C 594.175781 794.800781 633.125 760.042969 638.367188 713.953125 L 693.367188 231.335938 C 720.203125 228.535156 741.1875 205.78125 741.1875 178.21875 L 741.1875 152.898438 C 741.1875 123.453125 717.222656 99.492188 687.777344 99.492188 Z M 268.414062 83.445312 C 268.414062 64.910156 283.484375 49.839844 302.019531 49.839844 L 507.125 49.839844 C 525.660156 49.839844 540.726562 64.910156 540.726562 83.445312 L 540.726562 99.492188 L 268.414062 99.492188 Z M 603.941406 710.027344 C 600.691406 738.597656 576.550781 760.140625 547.796875 760.140625 L 261.351562 760.140625 C 232.601562 760.140625 208.460938 738.597656 205.210938 710.027344 L 150.695312 231.628906 L 658.460938 231.628906 L 603.949219 710.027344 Z M 706.546875 178.21875 C 706.546875 188.554688 698.132812 196.96875 687.792969 196.96875 L 121.339844 196.96875 C 111 196.96875 102.585938 188.554688 102.585938 178.21875 L 102.585938 152.898438 C 102.585938 142.570312 111 134.15625 121.339844 134.15625 L 687.777344 134.15625 C 698.113281 134.15625 706.527344 142.570312 706.527344 152.898438 L 706.527344 178.21875 Z M 706.546875 178.21875 "/></g><path style=" stroke:none;fill-rule:nonzero;fill:#ff3131;fill-opacity:1;" d="M 404.5625 666.339844 C 414.128906 666.339844 421.890625 658.574219 421.890625 649.007812 L 421.890625 342.761719 C 421.890625 333.195312 414.128906 325.429688 404.5625 325.429688 C 394.996094 325.429688 387.230469 333.195312 387.230469 342.761719 L 387.230469 649.007812 C 387.230469 658.574219 394.996094 666.339844 404.5625 666.339844 Z M 404.5625 666.339844 "/><path style=" stroke:none;fill-rule:nonzero;fill:#ff3131;fill-opacity:1;" d="M 508.164062 665.53125 C 508.734375 665.59375 509.308594 665.621094 509.863281 665.621094 C 518.683594 665.621094 526.222656 658.929688 527.089844 649.96875 L 556.777344 345.160156 C 557.703125 335.628906 550.734375 327.15625 541.210938 326.226562 C 531.550781 325.25 523.207031 332.269531 522.277344 341.789062 L 492.59375 646.597656 C 491.664062 656.132812 498.632812 664.605469 508.15625 665.53125 Z M 508.164062 665.53125 "/><path style=" stroke:none;fill-rule:nonzero;fill:#ff3131;fill-opacity:1;" d="M 299.261719 665.621094 C 299.816406 665.621094 300.386719 665.59375 300.960938 665.53125 C 310.484375 664.613281 317.449219 656.132812 316.523438 646.597656 L 286.835938 341.789062 C 285.910156 332.269531 277.5625 325.257812 267.902344 326.226562 C 258.378906 327.148438 251.414062 335.628906 252.339844 345.160156 L 282.027344 649.96875 C 282.902344 658.921875 290.441406 665.621094 299.253906 665.621094 Z M 299.261719 665.621094 "/></g></svg>