<svg xmlns="http://www.w3.org/2000/svg" xmlns:xlink="http://www.w3.org/1999/xlink" width="1080" zoomAndPan="magnify" viewBox="0 0 810 809.999993" height="1080" preserveAspectRatio="xMidYMid meet" version="1.2"><g id="576729ebf4"><rect x="0" width="810" y="0" height="809.999993" style="fill:#ffffff;fill-opacity:1;stroke:none;"/><rect x="0" width="810" y="0" height="809.999993" style="fill:#ffffff;fill-opacity:1;stroke:none;"/><path style=" stroke:none;fill-rule:nonzero;fill:#000000;fill-opacity:1;" d="M 453.601562 412.671875 L 384.964844 481.308594 C 384.554688 481.617188 384.125 481.882812 383.667969 482.109375 C 383.214844 482.339844 382.742188 482.523438 382.253906 482.667969 C 381.765625 482.8125 381.269531 482.910156 380.761719 482.964844 C 380.257812 483.019531 379.75 483.03125 379.242188 482.996094 C 378.734375 482.957031 378.234375 482.878906 377.742188 482.75 C 377.25 482.625 376.769531 482.457031 376.308594 482.246094 C 375.84375 482.035156 375.402344 481.785156 374.984375 481.492188 C 374.566406 481.203125 374.179688 480.878906 373.816406 480.519531 C 373.457031 480.160156 373.132812 479.769531 372.84375 479.351562 C 372.554688 478.933594 372.300781 478.492188 372.089844 478.03125 C 371.878906 477.566406 371.710938 477.089844 371.585938 476.59375 C 371.460938 476.101562 371.378906 475.601562 371.34375 475.09375 C 371.304688 474.585938 371.316406 474.078125 371.371094 473.574219 C 371.425781 473.066406 371.523438 472.570312 371.667969 472.082031 C 371.8125 471.59375 371.996094 471.121094 372.226562 470.667969 C 372.453125 470.210938 372.722656 469.78125 373.027344 469.375 L 435.695312 406.707031 L 369.617188 340.625 C 369.308594 340.21875 369.042969 339.789062 368.816406 339.332031 C 368.585938 338.878906 368.402344 338.40625 368.257812 337.917969 C 368.113281 337.429688 368.015625 336.933594 367.960938 336.425781 C 367.90625 335.921875 367.894531 335.414062 367.933594 334.90625 C 367.96875 334.398438 368.050781 333.898438 368.175781 333.40625 C 368.300781 332.910156 368.46875 332.433594 368.679688 331.96875 C 368.890625 331.507812 369.140625 331.066406 369.433594 330.648438 C 369.722656 330.230469 370.046875 329.839844 370.40625 329.480469 C 370.769531 329.121094 371.15625 328.796875 371.574219 328.507812 C 371.992188 328.214844 372.433594 327.964844 372.898438 327.753906 C 373.359375 327.542969 373.835938 327.375 374.332031 327.25 C 374.824219 327.121094 375.324219 327.042969 375.832031 327.003906 C 376.339844 326.96875 376.847656 326.980469 377.351562 327.035156 C 377.859375 327.089844 378.355469 327.1875 378.84375 327.332031 C 379.332031 327.476562 379.804688 327.660156 380.257812 327.890625 C 380.714844 328.117188 381.144531 328.382812 381.550781 328.691406 L 453.601562 400.738281 C 453.988281 401.109375 454.339844 401.519531 454.648438 401.960938 C 454.957031 402.402344 455.222656 402.871094 455.441406 403.363281 C 455.660156 403.859375 455.828125 404.367188 455.945312 404.894531 C 456.0625 405.421875 456.128906 405.953125 456.144531 406.496094 C 456.15625 407.035156 456.117188 407.570312 456.027344 408.101562 C 455.9375 408.632812 455.796875 409.152344 455.601562 409.65625 C 455.410156 410.160156 455.171875 410.640625 454.882812 411.097656 C 454.597656 411.558594 454.269531 411.980469 453.898438 412.375 C 453.808594 412.484375 453.710938 412.585938 453.601562 412.671875 Z M 567 405 C 567 407.652344 566.933594 410.300781 566.804688 412.949219 C 566.675781 415.597656 566.480469 418.242188 566.21875 420.878906 C 565.960938 423.515625 565.636719 426.148438 565.246094 428.769531 C 564.859375 431.394531 564.40625 434.003906 563.886719 436.605469 C 563.371094 439.203125 562.789062 441.789062 562.144531 444.363281 C 561.5 446.933594 560.792969 449.488281 560.023438 452.027344 C 559.253906 454.5625 558.421875 457.078125 557.53125 459.574219 C 556.636719 462.074219 555.683594 464.546875 554.667969 466.996094 C 553.652344 469.445312 552.578125 471.867188 551.445312 474.265625 C 550.3125 476.660156 549.121094 479.027344 547.871094 481.367188 C 546.621094 483.703125 545.316406 486.011719 543.953125 488.285156 C 542.589844 490.558594 541.171875 492.796875 539.699219 495.003906 C 538.226562 497.207031 536.699219 499.375 535.121094 501.503906 C 533.539062 503.632812 531.910156 505.722656 530.226562 507.773438 C 528.546875 509.820312 526.8125 511.828125 525.035156 513.792969 C 523.253906 515.757812 521.425781 517.675781 519.550781 519.550781 C 517.675781 521.425781 515.757812 523.253906 513.792969 525.035156 C 511.828125 526.816406 509.820312 528.546875 507.773438 530.226562 C 505.722656 531.910156 503.632812 533.539062 501.503906 535.121094 C 499.375 536.699219 497.207031 538.226562 495.003906 539.699219 C 492.796875 541.171875 490.558594 542.589844 488.285156 543.953125 C 486.011719 545.316406 483.703125 546.621094 481.367188 547.871094 C 479.027344 549.121094 476.660156 550.3125 474.265625 551.445312 C 471.867188 552.578125 469.445312 553.652344 466.996094 554.667969 C 464.546875 555.683594 462.074219 556.636719 459.574219 557.53125 C 457.078125 558.421875 454.5625 559.253906 452.027344 560.023438 C 449.488281 560.792969 446.933594 561.5 444.363281 562.144531 C 441.789062 562.789062 439.203125 563.371094 436.605469 563.886719 C 434.003906 564.40625 431.394531 564.859375 428.769531 565.246094 C 426.148438 565.636719 423.515625 565.960938 420.878906 566.21875 C 418.242188 566.480469 415.597656 566.675781 412.949219 566.804688 C 410.300781 566.933594 407.652344 567 405 567 C 402.347656 567 399.699219 566.933594 397.050781 566.804688 C 394.402344 566.675781 391.757812 566.480469 389.121094 566.21875 C 386.484375 565.960938 383.851562 565.636719 381.230469 565.246094 C 378.605469 564.859375 375.996094 564.40625 373.394531 563.886719 C 370.796875 563.371094 368.210938 562.789062 365.636719 562.144531 C 363.066406 561.5 360.511719 560.792969 357.972656 560.023438 C 355.4375 559.253906 352.921875 558.421875 350.421875 557.53125 C 347.925781 556.636719 345.453125 555.683594 343.003906 554.667969 C 340.554688 553.652344 338.132812 552.578125 335.734375 551.445312 C 333.339844 550.3125 330.972656 549.121094 328.632812 547.871094 C 326.296875 546.621094 323.988281 545.316406 321.714844 543.953125 C 319.441406 542.589844 317.203125 541.171875 314.996094 539.699219 C 312.792969 538.226562 310.625 536.699219 308.496094 535.121094 C 306.367188 533.539062 304.277344 531.910156 302.226562 530.226562 C 300.179688 528.546875 298.171875 526.816406 296.207031 525.035156 C 294.242188 523.253906 292.324219 521.425781 290.449219 519.550781 C 288.574219 517.675781 286.746094 515.757812 284.964844 513.792969 C 283.183594 511.828125 281.453125 509.820312 279.773438 507.773438 C 278.089844 505.722656 276.460938 503.632812 274.878906 501.503906 C 273.300781 499.375 271.773438 497.207031 270.300781 495.003906 C 268.828125 492.796875 267.410156 490.558594 266.046875 488.285156 C 264.683594 486.011719 263.378906 483.703125 262.128906 481.367188 C 260.878906 479.027344 259.6875 476.660156 258.554688 474.265625 C 257.421875 471.867188 256.347656 469.445312 255.332031 466.996094 C 254.316406 464.546875 253.363281 462.074219 252.46875 459.574219 C 251.578125 457.078125 250.746094 454.5625 249.976562 452.027344 C 249.207031 449.488281 248.5 446.933594 247.855469 444.363281 C 247.210938 441.789062 246.628906 439.203125 246.113281 436.605469 C 245.59375 434.003906 245.140625 431.394531 244.753906 428.769531 C 244.363281 426.148438 244.039062 423.515625 243.78125 420.878906 C 243.519531 418.242188 243.324219 415.597656 243.195312 412.949219 C 243.066406 410.300781 243 407.652344 243 405 C 243 402.347656 243.066406 399.699219 243.195312 397.050781 C 243.324219 394.402344 243.519531 391.757812 243.78125 389.121094 C 244.039062 386.484375 244.363281 383.851562 244.753906 381.230469 C 245.140625 378.605469 245.59375 375.996094 246.113281 373.394531 C 246.628906 370.796875 247.210938 368.210938 247.855469 365.636719 C 248.5 363.066406 249.207031 360.511719 249.976562 357.972656 C 250.746094 355.4375 251.578125 352.921875 252.46875 350.425781 C 253.363281 347.925781 254.316406 345.453125 255.332031 343.003906 C 256.347656 340.554688 257.421875 338.132812 258.554688 335.734375 C 259.6875 333.339844 260.878906 330.972656 262.128906 328.632812 C 263.378906 326.296875 264.683594 323.988281 266.046875 321.714844 C 267.410156 319.441406 268.828125 317.203125 270.300781 314.996094 C 271.773438 312.792969 273.300781 310.625 274.878906 308.496094 C 276.460938 306.367188 278.089844 304.277344 279.773438 302.226562 C 281.453125 300.179688 283.183594 298.171875 284.964844 296.207031 C 286.746094 294.242188 288.574219 292.324219 290.449219 290.449219 C 292.324219 288.574219 294.242188 286.746094 296.207031 284.964844 C 298.171875 283.183594 300.179688 281.453125 302.226562 279.773438 C 304.277344 278.089844 306.367188 276.460938 308.496094 274.878906 C 310.625 273.300781 312.792969 271.773438 314.996094 270.300781 C 317.203125 268.828125 319.441406 267.410156 321.714844 266.046875 C 323.988281 264.683594 326.296875 263.378906 328.632812 262.128906 C 330.972656 260.878906 333.339844 259.6875 335.734375 258.554688 C 338.132812 257.421875 340.554688 256.347656 343.003906 255.332031 C 345.453125 254.316406 347.925781 253.363281 350.421875 252.46875 C 352.921875 251.578125 355.4375 250.746094 357.972656 249.976562 C 360.511719 249.207031 363.066406 248.5 365.636719 247.855469 C 368.210938 247.210938 370.796875 246.628906 373.394531 246.113281 C 375.996094 245.59375 378.605469 245.140625 381.230469 244.753906 C 383.851562 244.363281 386.484375 244.039062 389.121094 243.78125 C 391.757812 243.519531 394.402344 243.324219 397.050781 243.195312 C 399.699219 243.066406 402.347656 243 405 243 C 407.652344 243 410.300781 243.066406 412.949219 243.195312 C 415.597656 243.324219 418.242188 243.519531 420.878906 243.78125 C 423.515625 244.039062 426.148438 244.363281 428.769531 244.753906 C 431.394531 245.140625 434.003906 245.59375 436.605469 246.113281 C 439.203125 246.628906 441.789062 247.210938 444.363281 247.855469 C 446.933594 248.5 449.488281 249.207031 452.027344 249.976562 C 454.5625 250.746094 457.078125 251.578125 459.574219 252.46875 C 462.074219 253.363281 464.546875 254.316406 466.996094 255.332031 C 469.445312 256.347656 471.867188 257.421875 474.265625 258.554688 C 476.660156 259.6875 479.027344 260.878906 481.367188 262.128906 C 483.703125 263.378906 486.011719 264.683594 488.285156 266.046875 C 490.558594 267.410156 492.796875 268.828125 495.003906 270.300781 C 497.207031 271.773438 499.375 273.300781 501.503906 274.878906 C 503.632812 276.460938 505.722656 278.089844 507.773438 279.773438 C 509.820312 281.453125 511.828125 283.183594 513.792969 284.964844 C 515.757812 286.746094 517.675781 288.574219 519.550781 290.449219 C 521.425781 292.324219 523.253906 294.242188 525.035156 296.207031 C 526.8125 298.171875 528.546875 300.179688 530.226562 302.226562 C 531.910156 304.277344 533.539062 306.367188 535.121094 308.496094 C 536.699219 310.625 538.226562 312.792969 539.699219 314.996094 C 541.171875 317.203125 542.589844 319.441406 543.953125 321.714844 C 545.316406 323.988281 546.621094 326.296875 547.871094 328.632812 C 549.121094 330.972656 550.3125 333.339844 551.445312 335.734375 C 552.578125 338.132812 553.652344 340.554688 554.667969 343.003906 C 555.683594 345.453125 556.636719 347.925781 557.53125 350.425781 C 558.421875 352.921875 559.253906 355.4375 560.023438 357.972656 C 560.792969 360.511719 561.5 363.066406 562.144531 365.636719 C 562.789062 368.210938 563.371094 370.796875 563.886719 373.394531 C 564.40625 375.996094 564.859375 378.605469 565.246094 381.230469 C 565.636719 383.851562 565.960938 386.484375 566.21875 389.121094 C 566.480469 391.757812 566.675781 394.402344 566.804688 397.050781 C 566.933594 399.699219 567 402.347656 567 405 Z M 549.949219 405 C 549.945312 401.835938 549.839844 398.679688 549.628906 395.523438 C 549.417969 392.367188 549.105469 389.222656 548.691406 386.085938 C 548.277344 382.953125 547.757812 379.832031 547.140625 376.734375 C 546.519531 373.632812 545.800781 370.554688 544.976562 367.5 C 544.15625 364.445312 543.238281 361.421875 542.21875 358.425781 C 541.199219 355.433594 540.082031 352.476562 538.871094 349.554688 C 537.660156 346.632812 536.351562 343.757812 534.949219 340.921875 C 533.550781 338.085938 532.058594 335.300781 530.476562 332.5625 C 528.890625 329.824219 527.21875 327.140625 525.460938 324.511719 C 523.703125 321.886719 521.859375 319.316406 519.933594 316.808594 C 518.007812 314.300781 516 311.859375 513.914062 309.484375 C 511.824219 307.105469 509.664062 304.800781 507.425781 302.566406 C 505.1875 300.332031 502.878906 298.171875 500.5 296.089844 C 498.121094 294.003906 495.675781 292 493.167969 290.078125 C 490.65625 288.15625 488.085938 286.316406 485.457031 284.558594 C 482.824219 282.804688 480.140625 281.136719 477.398438 279.558594 C 474.660156 277.976562 471.871094 276.488281 469.035156 275.09375 C 466.199219 273.695312 463.316406 272.390625 460.394531 271.183594 C 457.472656 269.976562 454.515625 268.863281 451.519531 267.847656 C 448.523438 266.832031 445.5 265.917969 442.441406 265.101562 C 439.386719 264.285156 436.308594 263.566406 433.207031 262.953125 C 430.105469 262.335938 426.988281 261.824219 423.851562 261.410156 C 420.714844 261 417.570312 260.691406 414.414062 260.488281 C 411.257812 260.28125 408.097656 260.179688 404.9375 260.179688 C 401.773438 260.183594 398.613281 260.285156 395.457031 260.496094 C 392.304688 260.703125 389.15625 261.015625 386.023438 261.429688 C 382.886719 261.84375 379.769531 262.359375 376.667969 262.976562 C 373.566406 263.59375 370.488281 264.3125 367.433594 265.132812 C 364.378906 265.953125 361.355469 266.871094 358.359375 267.890625 C 355.367188 268.90625 352.40625 270.019531 349.488281 271.230469 C 346.566406 272.445312 343.6875 273.75 340.851562 275.148438 C 338.015625 276.546875 335.226562 278.039062 332.488281 279.621094 C 329.75 281.203125 327.066406 282.875 324.4375 284.628906 C 321.808594 286.386719 319.242188 288.230469 316.730469 290.15625 C 314.222656 292.082031 311.78125 294.085938 309.402344 296.171875 C 307.027344 298.257812 304.71875 300.421875 302.484375 302.65625 C 300.25 304.894531 298.089844 307.203125 296.003906 309.578125 C 293.917969 311.957031 291.914062 314.402344 289.988281 316.910156 C 288.066406 319.421875 286.222656 321.988281 284.46875 324.621094 C 282.710938 327.25 281.042969 329.933594 279.460938 332.671875 C 277.878906 335.410156 276.390625 338.199219 274.992188 341.035156 C 273.59375 343.871094 272.289062 346.75 271.078125 349.671875 C 269.871094 352.59375 268.757812 355.554688 267.742188 358.546875 C 266.722656 361.542969 265.808594 364.566406 264.988281 367.625 C 264.171875 370.679688 263.453125 373.757812 262.835938 376.859375 C 262.21875 379.960938 261.703125 383.078125 261.292969 386.214844 C 260.878906 389.347656 260.570312 392.496094 260.363281 395.652344 C 260.15625 398.804688 260.050781 401.964844 260.050781 405.128906 C 260.050781 408.289062 260.15625 411.449219 260.363281 414.605469 C 260.570312 417.761719 260.878906 420.90625 261.292969 424.042969 C 261.703125 427.175781 262.21875 430.296875 262.835938 433.398438 C 263.453125 436.5 264.171875 439.578125 264.988281 442.632812 C 265.808594 445.6875 266.722656 448.710938 267.742188 451.707031 C 268.757812 454.703125 269.871094 457.660156 271.082031 460.582031 C 272.289062 463.503906 273.59375 466.382812 274.992188 469.21875 C 276.390625 472.054688 277.878906 474.84375 279.460938 477.582031 C 281.042969 480.320312 282.710938 483.007812 284.46875 485.636719 C 286.222656 488.265625 288.066406 490.835938 289.988281 493.34375 C 291.914062 495.855469 293.917969 498.296875 296.003906 500.675781 C 298.089844 503.054688 300.25 505.363281 302.484375 507.597656 C 304.71875 509.835938 307.027344 511.996094 309.402344 514.082031 C 311.78125 516.167969 314.222656 518.175781 316.730469 520.101562 C 319.242188 522.027344 321.808594 523.867188 324.4375 525.625 C 327.066406 527.382812 329.75 529.050781 332.488281 530.632812 C 335.226562 532.214844 338.015625 533.707031 340.851562 535.105469 C 343.6875 536.507812 346.566406 537.8125 349.488281 539.023438 C 352.410156 540.234375 355.367188 541.347656 358.359375 542.367188 C 361.355469 543.382812 364.378906 544.304688 367.433594 545.121094 C 370.488281 545.941406 373.566406 546.660156 376.667969 547.277344 C 379.769531 547.898438 382.886719 548.414062 386.023438 548.828125 C 389.15625 549.242188 392.304688 549.550781 395.460938 549.761719 C 398.613281 549.96875 401.773438 550.074219 404.9375 550.074219 C 408.097656 550.078125 411.257812 549.976562 414.414062 549.769531 C 417.570312 549.5625 420.714844 549.253906 423.851562 548.84375 C 426.988281 548.433594 430.105469 547.917969 433.207031 547.304688 C 436.308594 546.6875 439.386719 545.972656 442.441406 545.15625 C 445.5 544.339844 448.523438 543.421875 451.519531 542.40625 C 454.515625 541.394531 457.472656 540.28125 460.394531 539.074219 C 463.316406 537.863281 466.199219 536.5625 469.035156 535.164062 C 471.871094 533.765625 474.660156 532.277344 477.398438 530.699219 C 480.140625 529.117188 482.824219 527.453125 485.457031 525.695312 C 488.085938 523.941406 490.65625 522.101562 493.167969 520.175781 C 495.675781 518.253906 498.121094 516.25 500.5 514.167969 C 502.878906 512.082031 505.1875 509.921875 507.425781 507.6875 C 509.664062 505.453125 511.824219 503.148438 513.914062 500.773438 C 516 498.394531 518.007812 495.953125 519.933594 493.445312 C 521.859375 490.9375 523.703125 488.371094 525.460938 485.742188 C 527.21875 483.113281 528.890625 480.429688 530.476562 477.695312 C 532.058594 474.957031 533.550781 472.167969 534.949219 469.335938 C 536.351562 466.5 537.660156 463.621094 538.871094 460.699219 C 540.082031 457.78125 541.199219 454.820312 542.21875 451.828125 C 543.238281 448.835938 544.15625 445.808594 544.976562 442.757812 C 545.800781 439.703125 546.519531 436.625 547.140625 433.523438 C 547.757812 430.421875 548.277344 427.304688 548.691406 424.167969 C 549.105469 421.035156 549.417969 417.886719 549.628906 414.734375 C 549.839844 411.578125 549.945312 408.417969 549.949219 405.253906 Z M 549.949219 405 "/></g></svg>